<svg xmlns="http://www.w3.org/2000/svg" viewBox="0 0 39 40" width="39" height="40">
    <path fill-rule="evenodd"
          d="M34.32 21.96L38.54 25.26C38.92 25.56 39.02 26.1 38.78 26.54L34.78 33.46C34.54 33.9 34.02 34.08 33.56 33.9L28.58 31.9C27.54 32.68 26.42 33.36 25.2 33.86L24.44 39.16C24.38 39.64 23.96 40 23.46 40L15.46 40C14.96 40 14.54 39.64 14.48 39.16L13.72 33.86C12.5 33.36 11.38 32.7 10.34 31.9L5.36 33.9C4.92 34.06 4.38 33.9 4.14 33.46L0.14 26.54C-0.1 26.1 0 25.56 0.38 25.26L4.6 21.96C4.52 21.32 4.46 20.66 4.46 20C4.46 19.34 4.52 18.68 4.6 18.04L0.38 14.74C0 14.44 -0.12 13.9 0.14 13.46L4.14 6.54C4.38 6.1 4.9 5.92 5.36 6.1L10.34 8.1C11.38 7.32 12.5 6.64 13.72 6.14L14.48 0.84C14.54 0.36 14.96 0 15.46 0L23.46 0C23.96 0 24.38 0.36 24.44 0.84L25.2 6.14C26.42 6.64 27.54 7.3 28.58 8.1L33.56 6.1C34 5.94 34.54 6.1 34.78 6.54L38.78 13.46C39.02 13.9 38.92 14.44 38.54 14.74L34.32 18.04C34.4 18.68 34.46 19.32 34.46 20C34.46 20.68 34.4 21.32 34.32 21.96ZM19.46 27C23.32 27 26.46 23.86 26.46 20C26.46 16.14 23.32 13 19.46 13C15.6 13 12.46 16.14 12.46 20C12.46 23.86 15.6 27 19.46 27Z"/>
</svg>