<svg xmlns="http://www.w3.org/2000/svg" viewBox="0 0 144 144" width="144" height="144">
    <path fill-rule="evenodd"
          d="M0 15.97C0 7.18 7.1 0 15.97 0L127.75 0C136.54 0 143.72 7.18 143.72 15.97L143.72 127.75C143.72 136.54 136.54 143.72 127.75 143.72L15.97 143.72C7.1 143.72 0 136.54 0 127.75L0 15.97ZM95.82 47.9C95.82 34.65 85.12 23.95 71.86 23.95C58.61 23.95 47.91 34.65 47.91 47.9C47.91 61.16 58.61 71.86 71.86 71.86C85.12 71.86 95.82 61.16 95.82 47.9ZM23.95 111.78L23.95 119.77L119.77 119.77L119.77 111.78C119.77 95.82 87.83 87.03 71.86 87.03C55.89 87.03 23.95 95.82 23.95 111.78Z"/>
</svg>